<mxfile host="app.diagrams.net" modified="2024-04-12T07:53:26.432Z" agent="Mozilla/5.0 (Windows NT 10.0; Win64; x64) AppleWebKit/537.36 (KHTML, like Gecko) Chrome/120.0.0.0 Safari/537.36 Edg/120.0.0.0" etag="u75CdX9uirLFrrdYt2iZ" version="24.2.3" type="device">
  <diagram name="Page-1" id="4vlW1r-_CKslWczNUYSm">
    <mxGraphModel dx="1722" dy="1581" grid="1" gridSize="10" guides="1" tooltips="1" connect="1" arrows="1" fold="1" page="1" pageScale="1" pageWidth="850" pageHeight="1100" math="0" shadow="0">
      <root>
        <mxCell id="0" />
        <mxCell id="1" parent="0" />
        <mxCell id="sYSYUXHz-HTXFNywxMJG-1" value="" style="whiteSpace=wrap;html=1;aspect=fixed;fillColor=#e3c800;fontColor=#000000;strokeColor=#B09500;" vertex="1" parent="1">
          <mxGeometry x="-50" y="-190" width="460" height="460" as="geometry" />
        </mxCell>
        <mxCell id="sYSYUXHz-HTXFNywxMJG-2" value="admin" style="shape=umlActor;verticalLabelPosition=bottom;verticalAlign=top;html=1;outlineConnect=0;fillColor=#f8cecc;strokeColor=#b85450;" vertex="1" parent="1">
          <mxGeometry x="-40" y="-10" width="30" height="60" as="geometry" />
        </mxCell>
        <mxCell id="sYSYUXHz-HTXFNywxMJG-5" value="login&amp;nbsp;" style="ellipse;whiteSpace=wrap;html=1;fillColor=#ffe6cc;strokeColor=#d79b00;" vertex="1" parent="1">
          <mxGeometry x="20" y="-80" width="110" height="30" as="geometry" />
        </mxCell>
        <mxCell id="sYSYUXHz-HTXFNywxMJG-6" value="logout" style="ellipse;whiteSpace=wrap;html=1;fillColor=#ffe6cc;strokeColor=#d79b00;" vertex="1" parent="1">
          <mxGeometry x="20" y="160" width="110" height="30" as="geometry" />
        </mxCell>
        <mxCell id="sYSYUXHz-HTXFNywxMJG-7" value="add book" style="ellipse;whiteSpace=wrap;html=1;fillColor=#ffe6cc;strokeColor=#d79b00;" vertex="1" parent="1">
          <mxGeometry x="120" y="-40" width="110" height="30" as="geometry" />
        </mxCell>
        <mxCell id="sYSYUXHz-HTXFNywxMJG-8" value="edit book" style="ellipse;whiteSpace=wrap;html=1;fillColor=#ffe6cc;strokeColor=#d79b00;" vertex="1" parent="1">
          <mxGeometry x="170" y="15" width="110" height="30" as="geometry" />
        </mxCell>
        <mxCell id="sYSYUXHz-HTXFNywxMJG-9" value="delete book" style="ellipse;whiteSpace=wrap;html=1;fillColor=#ffe6cc;strokeColor=#d79b00;" vertex="1" parent="1">
          <mxGeometry x="170" y="70" width="110" height="30" as="geometry" />
        </mxCell>
        <mxCell id="sYSYUXHz-HTXFNywxMJG-10" value="view order" style="ellipse;whiteSpace=wrap;html=1;fillColor=#ffe6cc;strokeColor=#d79b00;" vertex="1" parent="1">
          <mxGeometry x="120" y="110" width="110" height="30" as="geometry" />
        </mxCell>
        <mxCell id="sYSYUXHz-HTXFNywxMJG-13" value="" style="endArrow=classic;html=1;rounded=0;entryX=0.291;entryY=1.1;entryDx=0;entryDy=0;entryPerimeter=0;" edge="1" parent="1" target="sYSYUXHz-HTXFNywxMJG-5">
          <mxGeometry width="50" height="50" relative="1" as="geometry">
            <mxPoint x="-10" y="10" as="sourcePoint" />
            <mxPoint x="40" y="-40" as="targetPoint" />
          </mxGeometry>
        </mxCell>
        <mxCell id="sYSYUXHz-HTXFNywxMJG-15" value="" style="endArrow=classic;html=1;rounded=0;exitX=1;exitY=0.3333333333333333;exitDx=0;exitDy=0;exitPerimeter=0;" edge="1" parent="1" source="sYSYUXHz-HTXFNywxMJG-2" target="sYSYUXHz-HTXFNywxMJG-7">
          <mxGeometry width="50" height="50" relative="1" as="geometry">
            <mxPoint y="20" as="sourcePoint" />
            <mxPoint x="62" y="-37" as="targetPoint" />
          </mxGeometry>
        </mxCell>
        <mxCell id="sYSYUXHz-HTXFNywxMJG-17" value="" style="endArrow=classic;html=1;rounded=0;entryX=0;entryY=0.5;entryDx=0;entryDy=0;" edge="1" parent="1" target="sYSYUXHz-HTXFNywxMJG-8">
          <mxGeometry width="50" height="50" relative="1" as="geometry">
            <mxPoint x="-10" y="10" as="sourcePoint" />
            <mxPoint x="140" y="-6" as="targetPoint" />
          </mxGeometry>
        </mxCell>
        <mxCell id="sYSYUXHz-HTXFNywxMJG-18" value="" style="endArrow=classic;html=1;rounded=0;entryX=0;entryY=0.5;entryDx=0;entryDy=0;exitX=1;exitY=0.3333333333333333;exitDx=0;exitDy=0;exitPerimeter=0;" edge="1" parent="1" source="sYSYUXHz-HTXFNywxMJG-2" target="sYSYUXHz-HTXFNywxMJG-9">
          <mxGeometry width="50" height="50" relative="1" as="geometry">
            <mxPoint x="10" y="20" as="sourcePoint" />
            <mxPoint x="180" y="40" as="targetPoint" />
          </mxGeometry>
        </mxCell>
        <mxCell id="sYSYUXHz-HTXFNywxMJG-19" value="" style="endArrow=classic;html=1;rounded=0;entryX=0;entryY=0;entryDx=0;entryDy=0;exitX=1;exitY=0.3333333333333333;exitDx=0;exitDy=0;exitPerimeter=0;" edge="1" parent="1" source="sYSYUXHz-HTXFNywxMJG-2" target="sYSYUXHz-HTXFNywxMJG-10">
          <mxGeometry width="50" height="50" relative="1" as="geometry">
            <mxPoint x="10" y="20" as="sourcePoint" />
            <mxPoint x="180" y="40" as="targetPoint" />
          </mxGeometry>
        </mxCell>
        <mxCell id="sYSYUXHz-HTXFNywxMJG-20" value="" style="endArrow=classic;html=1;rounded=0;" edge="1" parent="1" target="sYSYUXHz-HTXFNywxMJG-6">
          <mxGeometry width="50" height="50" relative="1" as="geometry">
            <mxPoint x="-10" y="10" as="sourcePoint" />
            <mxPoint x="146" y="124" as="targetPoint" />
          </mxGeometry>
        </mxCell>
        <mxCell id="sYSYUXHz-HTXFNywxMJG-23" value="Admin use case diagram" style="rounded=0;whiteSpace=wrap;html=1;fillColor=#008a00;strokeColor=#005700;fontColor=#ffffff;" vertex="1" parent="1">
          <mxGeometry x="-40" y="-180" width="440" height="60" as="geometry" />
        </mxCell>
        <mxCell id="sYSYUXHz-HTXFNywxMJG-24" value="" style="whiteSpace=wrap;html=1;aspect=fixed;fillColor=#dae8fc;gradientColor=#7ea6e0;strokeColor=#6c8ebf;" vertex="1" parent="1">
          <mxGeometry x="430" y="-180" width="460" height="460" as="geometry" />
        </mxCell>
        <mxCell id="sYSYUXHz-HTXFNywxMJG-25" value="user" style="shape=umlActor;verticalLabelPosition=bottom;verticalAlign=top;html=1;outlineConnect=0;fillColor=#f8cecc;strokeColor=#b85450;gradientColor=#ea6b66;" vertex="1" parent="1">
          <mxGeometry x="450" y="-30" width="60" height="130" as="geometry" />
        </mxCell>
        <mxCell id="sYSYUXHz-HTXFNywxMJG-26" value="login&amp;nbsp;" style="ellipse;whiteSpace=wrap;html=1;fillColor=#ffcc99;strokeColor=#36393d;" vertex="1" parent="1">
          <mxGeometry x="530" y="-120" width="120" height="40" as="geometry" />
        </mxCell>
        <mxCell id="sYSYUXHz-HTXFNywxMJG-27" value="add to card&amp;nbsp;" style="ellipse;whiteSpace=wrap;html=1;fillColor=#ffcc99;strokeColor=#36393d;" vertex="1" parent="1">
          <mxGeometry x="700" y="10" width="120" height="40" as="geometry" />
        </mxCell>
        <mxCell id="sYSYUXHz-HTXFNywxMJG-28" value="logout" style="ellipse;whiteSpace=wrap;html=1;fillColor=#ffcc99;strokeColor=#36393d;" vertex="1" parent="1">
          <mxGeometry x="540" y="150" width="120" height="40" as="geometry" />
        </mxCell>
        <mxCell id="sYSYUXHz-HTXFNywxMJG-29" value="register" style="ellipse;whiteSpace=wrap;html=1;fillColor=#ffcc99;strokeColor=#36393d;" vertex="1" parent="1">
          <mxGeometry x="670" y="-90" width="120" height="40" as="geometry" />
        </mxCell>
        <mxCell id="sYSYUXHz-HTXFNywxMJG-30" value="view book" style="ellipse;whiteSpace=wrap;html=1;fillColor=#ffcc99;strokeColor=#36393d;" vertex="1" parent="1">
          <mxGeometry x="700" y="-45" width="120" height="40" as="geometry" />
        </mxCell>
        <mxCell id="sYSYUXHz-HTXFNywxMJG-31" value="view order" style="ellipse;whiteSpace=wrap;html=1;fillColor=#ffcc99;strokeColor=#36393d;" vertex="1" parent="1">
          <mxGeometry x="720" y="65" width="120" height="40" as="geometry" />
        </mxCell>
        <mxCell id="sYSYUXHz-HTXFNywxMJG-32" value="edit profile" style="ellipse;whiteSpace=wrap;html=1;fillColor=#ffcc99;strokeColor=#36393d;" vertex="1" parent="1">
          <mxGeometry x="650" y="120" width="120" height="40" as="geometry" />
        </mxCell>
        <mxCell id="sYSYUXHz-HTXFNywxMJG-35" value="" style="endArrow=classic;html=1;rounded=0;exitX=1;exitY=0.3333333333333333;exitDx=0;exitDy=0;exitPerimeter=0;entryX=0.5;entryY=1;entryDx=0;entryDy=0;" edge="1" parent="1" source="sYSYUXHz-HTXFNywxMJG-25" target="sYSYUXHz-HTXFNywxMJG-26">
          <mxGeometry width="50" height="50" relative="1" as="geometry">
            <mxPoint x="610" y="60" as="sourcePoint" />
            <mxPoint x="660" y="10" as="targetPoint" />
            <Array as="points" />
          </mxGeometry>
        </mxCell>
        <mxCell id="sYSYUXHz-HTXFNywxMJG-38" value="" style="endArrow=classic;html=1;rounded=0;exitX=1;exitY=0.3333333333333333;exitDx=0;exitDy=0;exitPerimeter=0;entryX=0;entryY=1;entryDx=0;entryDy=0;" edge="1" parent="1" source="sYSYUXHz-HTXFNywxMJG-25" target="sYSYUXHz-HTXFNywxMJG-29">
          <mxGeometry width="50" height="50" relative="1" as="geometry">
            <mxPoint x="610" y="60" as="sourcePoint" />
            <mxPoint x="660" y="10" as="targetPoint" />
          </mxGeometry>
        </mxCell>
        <mxCell id="sYSYUXHz-HTXFNywxMJG-39" value="" style="endArrow=classic;html=1;rounded=0;exitX=1;exitY=0.3333333333333333;exitDx=0;exitDy=0;exitPerimeter=0;entryX=0.083;entryY=0.625;entryDx=0;entryDy=0;entryPerimeter=0;" edge="1" parent="1" source="sYSYUXHz-HTXFNywxMJG-25" target="sYSYUXHz-HTXFNywxMJG-30">
          <mxGeometry width="50" height="50" relative="1" as="geometry">
            <mxPoint x="610" y="60" as="sourcePoint" />
            <mxPoint x="660" y="10" as="targetPoint" />
          </mxGeometry>
        </mxCell>
        <mxCell id="sYSYUXHz-HTXFNywxMJG-40" value="" style="endArrow=classic;html=1;rounded=0;exitX=1;exitY=0.3333333333333333;exitDx=0;exitDy=0;exitPerimeter=0;entryX=0;entryY=0.5;entryDx=0;entryDy=0;" edge="1" parent="1" source="sYSYUXHz-HTXFNywxMJG-25" target="sYSYUXHz-HTXFNywxMJG-27">
          <mxGeometry width="50" height="50" relative="1" as="geometry">
            <mxPoint x="610" y="60" as="sourcePoint" />
            <mxPoint x="660" y="10" as="targetPoint" />
          </mxGeometry>
        </mxCell>
        <mxCell id="sYSYUXHz-HTXFNywxMJG-41" value="" style="endArrow=classic;html=1;rounded=0;entryX=0;entryY=0.5;entryDx=0;entryDy=0;" edge="1" parent="1" target="sYSYUXHz-HTXFNywxMJG-31">
          <mxGeometry width="50" height="50" relative="1" as="geometry">
            <mxPoint x="510" y="10" as="sourcePoint" />
            <mxPoint x="660" y="10" as="targetPoint" />
          </mxGeometry>
        </mxCell>
        <mxCell id="sYSYUXHz-HTXFNywxMJG-42" value="" style="endArrow=classic;html=1;rounded=0;exitX=1;exitY=0.3333333333333333;exitDx=0;exitDy=0;exitPerimeter=0;entryX=0.1;entryY=0.275;entryDx=0;entryDy=0;entryPerimeter=0;" edge="1" parent="1" source="sYSYUXHz-HTXFNywxMJG-25" target="sYSYUXHz-HTXFNywxMJG-32">
          <mxGeometry width="50" height="50" relative="1" as="geometry">
            <mxPoint x="610" y="60" as="sourcePoint" />
            <mxPoint x="660" y="10" as="targetPoint" />
          </mxGeometry>
        </mxCell>
        <mxCell id="sYSYUXHz-HTXFNywxMJG-43" value="" style="endArrow=classic;html=1;rounded=0;entryX=0.35;entryY=0.05;entryDx=0;entryDy=0;entryPerimeter=0;" edge="1" parent="1" target="sYSYUXHz-HTXFNywxMJG-28">
          <mxGeometry width="50" height="50" relative="1" as="geometry">
            <mxPoint x="510" y="10" as="sourcePoint" />
            <mxPoint x="660" y="10" as="targetPoint" />
          </mxGeometry>
        </mxCell>
        <mxCell id="sYSYUXHz-HTXFNywxMJG-44" value="user use case diagram" style="rounded=1;whiteSpace=wrap;html=1;fillColor=#d5e8d4;gradientColor=#97d077;strokeColor=#82b366;" vertex="1" parent="1">
          <mxGeometry x="430" y="-180" width="460" height="40" as="geometry" />
        </mxCell>
      </root>
    </mxGraphModel>
  </diagram>
</mxfile>
